<?xml version="1.0" encoding="UTF-8"?>
<svg xmlns="http://www.w3.org/2000/svg" viewBox="0 0 574 369" width="574" height="369">
<defs>
<marker id="arrow" markerWidth="8" markerHeight="6" refX="8" refY="3" orient="auto"><polygon points="0 0, 8 3, 0 6" fill="#888"/></marker>
<marker id="arrow-rev" markerWidth="8" markerHeight="6" refX="0" refY="3" orient="auto"><polygon points="8 0, 0 3, 8 6" fill="#888"/></marker>
</defs>
<g><rect x="254" y="72" width="288" height="142" rx="10" fill="#00BCD412" stroke="#00BCD440" stroke-width="1.5"/><text x="262" y="86" font-size="11" font-weight="700" fill="#00BCD4">🚗 EV</text><g transform="translate(254,72)"><path d="M 0 88 L 44 88" fill="none" stroke="#E91E63" stroke-width="1.5"/></g><g transform="translate(254,72)"><path d="M 104 88 L 154 88" fill="none" stroke="#E91E63" stroke-width="1.5"/></g><g transform="translate(254,72)"><path d="M 0 118 L 44 118" fill="none" stroke="#E91E63" stroke-width="1.5"/></g><g transform="translate(254,72)"><path d="M 104 118 L 144 118 L 144 100 L 154 100" fill="none" stroke="#E91E63" stroke-width="1.5"/></g><g><circle cx="532" cy="156" r="4" fill="none" stroke="#E91E63" stroke-width="2"/><rect x="408" y="148" width="120" height="36" rx="6" fill="#00BCD4" stroke="#E91E63" stroke-width="3" opacity="0.85"/><text x="468" y="170" text-anchor="middle" font-size="11" font-weight="600" fill="white">EV</text></g><g><circle cx="392" cy="112" r="4" fill="none" stroke="#E91E63" stroke-width="2"/><rect x="268" y="104" width="120" height="36" rx="6" fill="#00BCD4" stroke="rgba(0,0,0,0.15)" stroke-width="1" opacity="0.85"/><text x="328" y="126" text-anchor="middle" font-size="11" font-weight="600" fill="white">EV:trip</text></g><g><rect x="298" y="150" width="60" height="20" rx="10" fill="white" stroke="#bbb"/><text x="316" y="164" text-anchor="middle" font-size="12">η</text><line x1="330" y1="153" x2="330" y2="167" stroke="#ddd"/><text x="344" y="164" text-anchor="middle" font-size="12">⚡</text></g><g><rect x="298" y="180" width="60" height="20" rx="10" fill="white" stroke="#bbb"/><text x="316" y="194" text-anchor="middle" font-size="12">⚡</text><line x1="330" y1="183" x2="330" y2="197" stroke="#ddd"/><text x="344" y="194" text-anchor="middle" font-size="12">η</text></g></g>
<g><rect x="254" y="239" width="228" height="98" rx="10" fill="#FF980012" stroke="#FF980040" stroke-width="1.5"/><text x="262" y="253" font-size="11" font-weight="700" fill="#FF9800">🏭 Grid</text><g transform="translate(254,239)"><path d="M 0 44 L 14 44" fill="none" stroke="#E91E63" stroke-width="1.5"/></g><g transform="translate(254,239)"><path d="M 74 44 L 94 44" fill="none" stroke="#E91E63" stroke-width="1.5"/></g><g transform="translate(254,239)"><path d="M 0 74 L 14 74" fill="none" stroke="#E91E63" stroke-width="1.5"/></g><g transform="translate(254,239)"><path d="M 74 74 L 84 74 L 84 56 L 94 56" fill="none" stroke="#E91E63" stroke-width="1.5"/></g><g><circle cx="472" cy="279" r="4" fill="none" stroke="#E91E63" stroke-width="2"/><rect x="348" y="271" width="120" height="36" rx="6" fill="#FF9800" stroke="#E91E63" stroke-width="3" opacity="0.85"/><text x="408" y="293" text-anchor="middle" font-size="11" font-weight="600" fill="white">Grid</text></g><g><rect x="268" y="273" width="60" height="20" rx="10" fill="white" stroke="#bbb"/><text x="286" y="287" text-anchor="middle" font-size="12">⚡</text><line x1="300" y1="276" x2="300" y2="290" stroke="#ddd"/><text x="314" y="287" text-anchor="middle" font-size="12">💲</text></g><g><rect x="268" y="303" width="60" height="20" rx="10" fill="white" stroke="#bbb"/><text x="286" y="317" text-anchor="middle" font-size="12">💲</text><line x1="300" y1="306" x2="300" y2="320" stroke="#ddd"/><text x="314" y="317" text-anchor="middle" font-size="12">⚡</text></g></g>
<g><rect x="12" y="122" width="178" height="124" rx="10" fill="#90CAF912" stroke="#90CAF940" stroke-width="1.5"/><text x="20" y="136" font-size="11" font-weight="700" fill="#90CAF9">⚡ Switchboard</text><g transform="translate(12,122)"><path d="M 134 52.8 L 144 52.8 L 144 38 L 178 38" fill="none" stroke="#E91E63" stroke-width="1.5"/></g><g transform="translate(12,122)"><path d="M 134 60 L 178 60" fill="none" stroke="#E91E63" stroke-width="1.5"/></g><g transform="translate(12,122)"><path d="M 134 67.2 L 154 67.2 L 154 82 L 178 82" fill="none" stroke="#E91E63" stroke-width="1.5"/></g><g transform="translate(12,122)"><path d="M 134 74.4 L 144 74.4 L 144 104 L 178 104" fill="none" stroke="#E91E63" stroke-width="1.5"/></g><g><rect x="26" y="167.6" width="120" height="36" rx="6" fill="#90CAF9" stroke="rgba(0,0,0,0.15)" stroke-width="1" opacity="0.85"/><text x="86" y="189.6" text-anchor="middle" font-size="11" font-weight="600" fill="white">Switchboard</text></g></g>
<g><path d="M 196 160 L 248 160" fill="none" stroke="#E91E63" stroke-width="1.5"/><polygon points="245,160 235,165 235,155" fill="#888" stroke="white" stroke-width="1" stroke-linejoin="round"/></g>
<g><path d="M 196 182 L 212 182 L 212 190 L 248 190" fill="none" stroke="#E91E63" stroke-width="1.5"/><polygon points="199,182 209,177 209,187" fill="#888" stroke="white" stroke-width="1" stroke-linejoin="round"/></g>
<g><path d="M 196 204 L 222 204 L 222 283 L 248 283" fill="none" stroke="#E91E63" stroke-width="1.5"/><polygon points="245,283 235,288 235,278" fill="#888" stroke="white" stroke-width="1" stroke-linejoin="round"/></g>
<g><path d="M 196 226 L 212 226 L 212 313 L 248 313" fill="none" stroke="#E91E63" stroke-width="1.5"/><polygon points="199,226 209,221 209,231" fill="#888" stroke="white" stroke-width="1" stroke-linejoin="round"/></g>
<circle cx="248" cy="160" r="5" fill="#888"/>
<circle cx="248" cy="190" r="5" fill="#888"/>
<circle cx="248" cy="283" r="5" fill="#888"/>
<circle cx="248" cy="313" r="5" fill="#888"/>
<circle cx="196" cy="160" r="5" fill="#888"/>
<circle cx="196" cy="182" r="5" fill="#888"/>
<circle cx="196" cy="204" r="5" fill="#888"/>
<circle cx="196" cy="226" r="5" fill="#888"/>
<g><rect x="12" y="12" width="90" height="40" rx="6" fill="rgba(30,30,30,0.9)" stroke="#555"/><text x="20" y="26" font-size="11" font-weight="700" fill="#eee">VLANs</text><rect x="20" y="34" width="16" height="3" rx="1" fill="#E91E63"/><text x="42" y="38" font-size="10" fill="#ccc">VLAN 1</text></g>
</svg>
